<svg xmlns="http://www.w3.org/2000/svg" viewBox="-3 -3 70 70" role="img" aria-label="windows: Rounded">
  <defs>
    <linearGradient id="tile" x1="0" y1="0" x2="1" y2="1">
      <stop offset="0" stop-color="#ffffff" /><stop offset="1" stop-color="#c2dbfa" />
    </linearGradient>
    <linearGradient id="white" x1="0" y1="0" x2="0" y2="1">
      <stop offset="0" stop-color="#22344f" /><stop offset=".55" stop-color="#152339" /><stop offset="1" stop-color="#070d18" />
    </linearGradient>
    <linearGradient id="blue" x1="0" y1="0" x2="0" y2="1">
      <stop offset="0" stop-color="#56a8f2" /><stop offset="1" stop-color="#1c5ca8" />
    </linearGradient>
    <filter id="shadow" x="-45%" y="-45%" width="190%" height="190%">
      <feDropShadow dx="0" dy="1.5" stdDeviation="1.7" flood-color="#03101f" flood-opacity=".42" />
    </filter>
  <linearGradient id="symbol-blue" gradientUnits="userSpaceOnUse" x1="0" y1="0" x2="0" y2="32"><stop offset="0" stop-color="#56a8f2" /><stop offset="1" stop-color="#1c5ca8" /></linearGradient>
  </defs>
  <rect x="2" y="2" width="60" height="60" rx="16" fill="url(#tile)" />
  <rect x="2" y="2" width="60" height="26" rx="16" fill="#fff" opacity=".52" />
  <rect x="2.75" y="2.75" width="58.5" height="58.5" rx="15" fill="none" stroke="#1c5ca8" stroke-opacity=".18" />

  <g id="vault-shield" transform="translate(32 31.5) scale(1.1) translate(-32 -31.5)">
  <g filter="url(#shadow)"><path d="M32 13 16 19v13.2c0 9.4 6.6 15.3 16 17.8 9.4-2.5 16-8.4 16-17.8V19L32 13Z" fill="url(#white)" /></g>
  <path d="M32 13 16 19v13.2c0 9.4 6.6 15.3 16 17.8V13Z" fill="#fff" opacity=".07" />
  </g>

<g id="symbol-scale" transform="translate(32 30) scale(0.85) translate(-32 -30)"><g id="platform-symbol" transform="translate(20 18) scale(0.75)"><g fill="url(#symbol-blue)"><rect x="1" y="1" width="13.3" height="13.3" rx="3.0" /><rect x="1" y="17.7" width="13.3" height="13.3" rx="3.0" /><rect x="17.7" y="1" width="13.3" height="13.3" rx="3.0" /><rect x="17.7" y="17.7" width="13.3" height="13.3" rx="3.0" /></g></g>
</g></svg>
